<svg xmlns="http://www.w3.org/2000/svg" viewBox="0 0 993.1 704.71"><g id="レイヤー_2" data-name="レイヤー 2"><g id="レイヤー_6" data-name="レイヤー 6"><path d="M714,339.59c-9.61,5.92-17.58,20.2-20.32,39.44-5.37,37.72-14.77,77.57-32.67,106.58C624.7,544.5,560.49,573.19,478.4,573.24c-141.23.08-276.88-157.43-157.32-315" style="fill:none;stroke:#110804;stroke-linecap:round;stroke-linejoin:round;stroke-width:3px"/><ellipse cx="412.58" cy="360.34" rx="18.23" ry="38.94" style="fill:#110804;stroke:#110804;stroke-linejoin:round"/><ellipse cx="546.62" cy="360.34" rx="18.23" ry="38.94" style="fill:#110804;stroke:#110804;stroke-linejoin:round"/><path d="M594.83,434.18s0,.07-.07.1A239.49,239.49,0,0,1,577.92,458c-20,24.75-54.68,57-100.1,56.14-61.7-1.14-102.63-62.57-113.45-79.92" style="fill:none;stroke:#110804;stroke-linecap:round;stroke-linejoin:round;stroke-width:3px"/><path d="M610,474c-5.51,6.93-18.38,3.37-28.72-7.95a52.66,52.66,0,0,1-4.14-5.17c7.81-11.36,14.74-21.19,17.68-26.71,2.67,1.8,3.9,4,6.4,6.74C611.61,452.24,615.51,467.08,610,474Z" style="fill:#f26363;stroke:#110804;stroke-linecap:round;stroke-linejoin:round;stroke-width:3px"/><path d="M688.46,372.41a18.12,18.12,0,1,1-18.11-18.11A18.13,18.13,0,0,1,688.46,372.41Z" style="fill:none;stroke:#110804;stroke-linecap:round;stroke-linejoin:round;stroke-width:3px"/><path d="M626.78,124.65a366.25,366.25,0,0,0-61,7.81c-20.64,4.45-31.54,27.73-21.9,46.87,6.31,12.51,12.9,30,20.2,57a247,247,0,0,1,7,86.06,185.8,185.8,0,0,0,20.15,3.66,27.69,27.69,0,0,0,16.4-3.21c20.66-11.22,88.89-47.86,127.57-64,6.9-2.89,8.2-12.15,13-19.36,0-14.2,36.23-44.13,57.87-65a27.83,27.83,0,0,0,5.11-7.11C771.8,146.66,707.91,121.29,626.78,124.65Z" style="fill:#03a678;stroke:#03a678;stroke-linecap:round;stroke-linejoin:round"/><path d="M245.43,280.85c34.25-7.2,96.4-15.86,159.64-2.58C488,295.66,447.59,289.7,556.4,318.78c5,1.33,10.69,2.73,14.65,3.65-.14-10.22-3.59-43.66-23.17-88.43-5.33-12.17-9.42-21.83-12.81-29.83-13.65-32.1-47.74-49.89-81.17-42.1a425.27,425.27,0,0,0-67.15,21.72c-56.94,23.76-108.46,54.76-144.48,83.38" style="fill:#f27830;stroke:#f27830;stroke-linecap:round;stroke-linejoin:round"/><path d="M216.81,208.67A150.53,150.53,0,0,1,221.55,189c7.79-24.63,3.85-37.82-2.28-44.86A17.6,17.6,0,0,1,216.2,139c42.14-6.19,96.86-18.36,153.36-12.8,25.91,2.52,50.25,5.82,72.7,10.18,8.12,1.56,8.12,13.39,0,15-25,5-54.58,14.23-86.37,30-46.64,23.17-86.57,55.3-114.6,82.58" style="fill:#f7b82c;stroke:#f7b82c;stroke-linecap:round;stroke-linejoin:round"/><path d="M216.2,139s-.73-2.3-.73-2.3a18.17,18.17,0,0,1,5-17.57c22-21,61.84-54.84,96-62.38,1.2-.25,2.19-1.17,3.43-1.6,50.09-17,75.67-57.87,96.66-44.09,45.95,30.18,115-.84,142-9.24C548.93,7.16,508.73,39.62,493.13,85c-.91,2.62-1.64,5.1-2.24,7.45-5.13,20.23-26.41,34.09-46.66,31-23.09-3.55-48.4-6-73.07-7.61-57.53-3.73-111.68,13.62-152.39,22.45Z" style="fill:#30b1bf;stroke:#30b1bf;stroke-linecap:round;stroke-linejoin:round"/><path d="M811.12,167.32a.08.08,0,0,1,0,.05c-5.14-2.71-10.69-5.49-16.64-8.27-.6-.27-1.19-.54-1.79-.83l-1.86-1.11c-7.77-4.58-16.46-9.34-26.09-14a319.56,319.56,0,0,0-114.64-31c-44.21-3.34-82,4.41-111.69,13.55-17.69,5.46-35.57-8.81-34.18-27.61,0-.16,0-.32,0-.45,3.92-48.18,49.1-91.47,54.36-95.78,1.07-.34,2-.61,2.95-.86a15.15,15.15,0,0,1,14.38,3.77C591.65,19.87,630.17,61.28,678.26,60c60.73-1.6,107.53,45.11,129.54,72.32A32,32,0,0,1,811.12,167.32Z" style="fill:#f26363;stroke:#f26363;stroke-linecap:round;stroke-linejoin:round"/><path d="M901.47,177.66l-5.64,8.8L766.26,387.71,663.35,547.65,644.3,535.37,747.18,375.46c-30.65-29.46-29.1-91.26,5.5-145s90.21-80.74,129.71-65.06a57.72,57.72,0,0,1,10.15,5.24A56.48,56.48,0,0,1,901.47,177.66Z" style="fill:none;stroke:#110804;stroke-linecap:round;stroke-linejoin:round;stroke-width:3px"/><path d="M164.38,163.59l40.6,85.2c2.59,5.44,1.59,11.34-2.24,13.16l-1.85.88c-3.83,1.83-9-1.1-11.63-6.54l-40.79-85.6c-6.7-14-15.35-15.07-21.72-12s-11,10.41-4.33,24.45L163.2,268.7c2.6,5.44,1.59,11.34-2.24,13.16l-1.85.88c-3.83,1.83-9-1.1-11.63-6.55L106.87,191c-12-25.14-36.79-12.27-25.09,12.3l38.77,81.35C142,329.89,155.16,338,174.42,346.1c15.51,6.52,27.25,8.89,40.66,37l79,165.86c4,8.43,12.1,13,18,10.15l8.89-4.24c5.94-2.83,7.49-12,3.47-20.39l-79-165.86c-13.42-28.16-7.87-38.77-3.16-54.93,5.84-20.06,7.84-35.41-13.81-80.54l-38.77-81.36C178,127.28,152.4,138.45,164.38,163.59Z" style="fill:none;stroke:#110804;stroke-linecap:round;stroke-linejoin:round;stroke-width:3px"/><path d="M50.22,458.58,41.87,449c8.23-7.25,12.17-14,14-20.74-20.43,2.1-45.24-.22-53.51-20.89-4.78-12.08-.25-24.55,11-31l1.07-.61c10.7-5.42,25.38-4.65,37.88,7.25l12.32-7.05-5-8.83,11.26-6.44,5,8.82,13.72-7.85L96,372.78l-13.72,7.86,5.78,10.1-11.25,6.44-5.79-10.1-10.18,5.83.61,1.06A43.42,43.42,0,0,1,69,413.26c7-1.46,11.49-3.05,11.89-2.85L84.7,422.6c-1,.28-7.13,2-15.44,3.62C68,436.85,62.52,448,50.22,458.58Zm6.09-43.3a37,37,0,0,0-5.66-14.12l-1-1.81L31.72,409.6l-6.39-11.17,15-8.59c-7.17-5.07-14.53-5.51-20-2.65-4.47,2.13-8.83,7.45-5.76,15.3C19.93,416.35,39.91,417.19,56.31,415.28Z" style="fill:#f26363;stroke:#f26363;stroke-linecap:round;stroke-linejoin:round"/><path d="M162.51,521,150,507.46l-12.4,14.79-4.86,5.66-5-5.39c-4.73-5.13-17.35-15.15-24.87-12.37-5.48,1.73-9.17,10.47-10.67,24.87l-12.83-1.15C81,518.7,85.15,508.22,91.5,502.35c2.27-2.09,4.43-3.76,7.08-4.53,12.81-4.34,26.17,4.66,33.3,10.92,2.1-2.28,5.49-6.25,9.18-11l-28.67-31,9.52-8.81,27.68,30c7.55-9.48,14.89-17.93,14.89-17.93l9.65,8.09-15.81,19.29L172,512.15Z" style="fill:#30b1bf;stroke:#30b1bf;stroke-linecap:round;stroke-linejoin:round"/><path d="M235.4,583c2.2,14.9-7.31,30.09-28.33,44.8l-7.4-10.5c11.53-8.32,24.9-20.45,23.07-32.41-.76-5.44-4.66-10.61-9.9-14.89A528.77,528.77,0,0,1,172,605.3l-7.16-9.76c12.36-9.54,25.73-21.68,37.35-32.76a94.81,94.81,0,0,0-17.1-7.52l4-12.49a121.16,121.16,0,0,1,23.09,10.67c12.07-12,20.6-20.66,20.81-21l8.6,8.49c-.48.72-8.22,8.9-19.6,19.85C228.74,566.56,234.12,573.92,235.4,583Zm24.72-2.68,5,30.93-12.79,2.09-5-30.93Zm-1.83-5,5.28-13.28,9.8,3.64L268.1,579Zm13.23,10,2.68-13.84,10.13,2.08-2.68,13.83Z" style="fill:#f27830;stroke:#f27830;stroke-linecap:round;stroke-linejoin:round"/><path d="M358.67,682.57,346,680.5c4.3-25.68-11.08-36-20.14-39.75-7.94,16.82-18.86,31.48-32.21,30.48-7.31-.73-13-3.09-16.23-7.33-2.93-3.72-3.72-8.63-2.93-14.27a20.87,20.87,0,0,1,1.27-4.13c3.61-9.73,15.64-22.79,42.7-20l3.43-9.26-20.67-7.67,4.51-12.16,20.1,7.46c1.16-4.19,2.43-8.32,3.36-12.59l12.58,3.08c-.72,2.63-2,7.83-3.88,14l12.06,4.47L345.42,625l-11.49-4.26a42.46,42.46,0,0,1-1.7,5.3l-1.08,2.89C345.87,635,364,651.34,358.67,682.57Zm-46-44.33c-18.24-.84-23.7,8.6-25,12.08l-.52,1.38a10.08,10.08,0,0,0,.44,4.12c1,1.44,3.8,2.07,7.2,2.41C300.16,658.9,306.56,650.47,312.66,638.24Zm68.23-5-6.81,11.31-16.6-9.85,6.46-11.43Z" style="fill:#03a678;stroke:#03a678;stroke-linecap:round;stroke-linejoin:round"/><path d="M504.77,631.31a12.35,12.35,0,0,1-13.55,10.92,12.91,12.91,0,0,1-5.34-1.84l-.16,1.47c-.49,2.18-11.92,49.38-71.72,62.85l-2.85-13.12c38.55-8.63,53.6-33.05,59.06-45.49l-55.76-6.21,1.47-13.26,65.14,7.25a10.36,10.36,0,0,1-.64-5.29,12.25,12.25,0,1,1,24.35,2.72Zm-7.31-.82a4.78,4.78,0,0,0-4.32-5.45,4.86,4.86,0,0,0-5.42,4.37,4.94,4.94,0,0,0,4.32,5.45A4.86,4.86,0,0,0,497.46,630.49Z"/><path d="M603.76,627.32l8.61,65.76-76.52,10-8.62-65.76Zm-11.29,14.8-50.4,6.6,5.18,39.56,50.41-6.6Z"/><path d="M667.74,613.69l-20.52,8.07-4.88-12.41,20.52-8.07Zm4.82,26.65L653,648.05l-4.88-12.42,19.6-7.71Zm41.7-19.46,13.23,1.84c-.35,1.46-5.26,40.16-60.35,64.08l-5.07-12.21C709.5,654,714.15,622.25,714.26,620.88Zm-7.59-10.28-7.92-11.76,8.45-6,7.91,11.75Zm23-12.38-7.19,7.47-10-10.28,7.29-7.24Z"/><path d="M832,582.45l7.13,10.09-59,41.69-7.13-10.08,16.81-11.88L771.2,586.05l-10,7.06L754.07,583l32.21-22.76,7.13,10.09L781.2,579l18.54,26.23Z"/><path d="M890.25,453.63c1.39,1.23,34.5,31.28,13.23,93.07L891,542.2c14-39.94,1.69-63.88-5.24-73.76l-20.51,23.24a79.65,79.65,0,0,1,1.85,24l-13.16-1.33c2.1-23.47-10.34-41.48-10.62-41.73l10.83-7.59c0,.52,3.11,4.87,6.3,12.09l24.72-28Z"/><path d="M985,372.15c-10.08,12.65-20.59,25.06-27.21,32.62l35.3,19.12-6.3,11.63L905.34,391.4l6.3-11.63,34.21,18.53c6-7.19,17.87-20.55,28.43-34.33Z"/></g></g></svg>